<?xml version="1.0" standalone="no"?>
<svg viewBox="0 0 200 200" xmlns="http://www.w3.org/2000/svg">
  <path fill="#FF5652" d="M35,-62.7C35.2,-54.2,18.4,-27.5,14,-13.4C9.6,0.7,17.5,2.2,24.3,8.5C31.2,14.8,36.9,25.9,33.7,28.6C30.4,31.4,18.2,25.9,10.6,21.4C3,16.9,0,13.4,-5.8,14.3C-11.7,15.1,-20.5,20.3,-31.8,20.3C-43,20.3,-56.7,15.2,-59.6,7.4C-62.5,-0.4,-54.6,-10.8,-49.6,-23.1C-44.7,-35.4,-42.8,-49.5,-35.1,-54.6C-27.3,-59.6,-13.6,-55.5,1.9,-58.4C17.4,-61.3,34.7,-71.1,35,-62.7Z" transform="translate(100 100)" />
</svg>
